<svg width="19" height="21" viewBox="0 0 19 21" fill="none" xmlns="http://www.w3.org/2000/svg">
<path fill-rule="evenodd" clip-rule="evenodd" d="M10.2021 1.19634C10.2045 1.1663 10.2058 1.13593 10.2058 1.10526C10.2058 0.494843 9.71091 0 9.10049 0C8.49007 0 7.99522 0.494843 7.99522 1.10526C7.99522 1.13593 7.99647 1.1663 7.99892 1.19634C4.86068 1.721 2.46891 4.44961 2.46891 7.73684V9.76056C2.46891 11.3293 2.04258 12.8685 1.23551 14.2136L0.623835 15.2331C0.218141 15.9093 0.0152944 16.2473 0.00140308 16.5234C-0.0201123 16.951 0.207246 17.3526 0.584973 17.5541C0.82885 17.6842 1.22312 17.6842 2.01166 17.6842H16.1894C16.9779 17.6842 17.3722 17.6842 17.616 17.5541C17.9938 17.3526 18.2211 16.951 18.1996 16.5234C18.1857 16.2473 17.9829 15.9092 17.5772 15.2331L16.9655 14.2136C16.1584 12.8685 15.7321 11.3292 15.7321 9.76053V7.73684C15.7321 4.44961 13.3403 1.721 10.2021 1.19634ZM11.8559 18.955C11.8644 18.8639 11.7894 18.7895 11.6979 18.7895H6.50312C6.41155 18.7895 6.33653 18.8639 6.34508 18.955C6.39441 19.4808 6.67744 19.9772 7.14664 20.3526C7.66483 20.7671 8.36765 21 9.10049 21C9.83332 21 10.5361 20.7671 11.0543 20.3526C11.5235 19.9772 11.8066 19.4808 11.8559 18.955Z" fill="#343631" fill-opacity="0.7"/>
</svg>
