<svg width="11" height="13" viewBox="0 0 11 13" fill="none" xmlns="http://www.w3.org/2000/svg">
<path fill-rule="evenodd" clip-rule="evenodd" d="M2.13889 9.1H7.94444C9.09676 9.1 9.67293 9.1 10.0309 8.71924C10.3889 8.33848 10.3889 7.72565 10.3889 6.5V3.25C10.3889 2.02435 10.3889 1.41153 10.0309 1.03076C9.67293 0.650003 9.09676 0.650003 7.94444 0.650003H3.05556C1.90324 0.650003 1.32707 0.650003 0.969094 1.03076C0.611114 1.41153 0.611114 2.02435 0.611114 3.25V10.725C0.611114 9.82754 1.29512 9.1 2.13889 9.1ZM3.66667 2.6C2.99165 2.6 2.44445 3.18203 2.44445 3.9C2.44445 4.61797 2.99165 5.2 3.66667 5.2L7.33333 5.2C8.00835 5.2 8.55555 4.61797 8.55555 3.9C8.55555 3.18203 8.00835 2.6 7.33333 2.6L3.66667 2.6Z" fill="#CCCCCC"/>
<path fill-rule="evenodd" clip-rule="evenodd" d="M1.79588 1.3418C1.53081 1.37971 1.44774 1.4409 1.40121 1.49038C1.35469 1.53986 1.29716 1.62823 1.26152 1.91016C1.22352 2.21079 1.22222 2.6188 1.22222 3.25V8.66893C1.50005 8.52855 1.81085 8.45 2.13889 8.45H7.94444C8.53788 8.45 8.92148 8.44862 9.20412 8.4082C9.46919 8.3703 9.55226 8.3091 9.59878 8.25962C9.6453 8.21014 9.70284 8.12177 9.73848 7.83984C9.77648 7.53921 9.77778 7.1312 9.77778 6.5V3.25C9.77778 2.6188 9.77648 2.21079 9.73848 1.91016C9.70284 1.62823 9.6453 1.53986 9.59878 1.49038C9.55227 1.4409 9.46919 1.37971 9.20412 1.3418C8.92148 1.30138 8.53788 1.3 7.94444 1.3H3.05556C2.46212 1.3 2.07852 1.30138 1.79588 1.3418ZM2.94806e-06 10.725V3.25C2.94806e-06 3.23569 2.21956e-06 3.22143 1.49106e-06 3.20721C-2.89603e-05 2.631 -5.51156e-05 2.13452 0.0501999 1.73694C0.104058 1.31085 0.225514 0.902425 0.536974 0.571145C0.848434 0.239864 1.23243 0.11068 1.63302 0.0533944C2.00681 -5.8623e-05 2.47359 -3.08032e-05 3.01533 1.58595e-06C3.02869 2.36081e-06 3.0421 3.13567e-06 3.05556 3.13567e-06L7.98467 1.58595e-06C8.52641 -3.08032e-05 8.99319 -5.8623e-05 9.36698 0.0533944C9.76757 0.11068 10.1516 0.239864 10.463 0.571145C10.7745 0.902425 10.8959 1.31085 10.9498 1.73694C11.0001 2.13452 11 2.631 11 3.20723V6.54278C11 7.119 11.0001 7.61548 10.9498 8.01307C10.8959 8.43915 10.7745 8.84758 10.463 9.17886C10.1516 9.51014 9.76757 9.63932 9.36698 9.69661C8.99319 9.75006 8.52641 9.75003 7.98467 9.75L2.13889 9.75C1.63263 9.75 1.22222 10.1865 1.22222 10.725C1.22222 11.2635 1.63263 11.7 2.13889 11.7H4.88889V13H2.13889C0.957616 13 2.94806e-06 11.9814 2.94806e-06 10.725ZM3.66667 3.25C3.32916 3.25 3.05556 3.54102 3.05556 3.9C3.05556 4.25899 3.32916 4.55 3.66667 4.55L7.33333 4.55C7.67084 4.55 7.94444 4.25899 7.94444 3.9C7.94444 3.54102 7.67084 3.25 7.33333 3.25L3.66667 3.25ZM1.83334 3.9C1.83334 2.82305 2.65415 1.95 3.66667 1.95L7.33333 1.95C8.34585 1.95 9.16666 2.82305 9.16666 3.9C9.16666 4.97696 8.34585 5.85 7.33333 5.85H3.66667C2.65415 5.85 1.83334 4.97696 1.83334 3.9Z" fill="#CCCCCC"/>
<path fill-rule="evenodd" clip-rule="evenodd" d="M3.66667 12.35C3.66667 11.991 3.94027 11.7 4.27778 11.7H10.3889C10.7264 11.7 11 11.991 11 12.35C11 12.709 10.7264 13 10.3889 13H4.27778C3.94027 13 3.66667 12.709 3.66667 12.35Z" fill="#CCCCCC"/>
</svg>
