<svg width="current" height="current" viewBox="0 0 20 20" fill="none" xmlns="http://www.w3.org/2000/svg">
<path d="M3.33333 7.49999C3.33333 5.14297 3.33333 3.96446 4.06557 3.23223C4.7978 2.49999 5.97631 2.49999 8.33333 2.49999H11.6667C14.0237 2.49999 15.2022 2.49999 15.9344 3.23223C16.6667 3.96446 16.6667 5.14297 16.6667 7.49999V13.1897C16.6667 15.4257 16.6667 16.5438 15.9631 16.8857C15.2595 17.2277 14.3804 16.537 12.6221 15.1555L12.0594 14.7133C11.0708 13.9365 10.5764 13.5481 10 13.5481C9.42356 13.5481 8.92924 13.9365 7.94059 14.7133L7.37789 15.1555C5.61962 16.537 4.74049 17.2277 4.03691 16.8857C3.33333 16.5438 3.33333 15.4257 3.33333 13.1897V7.49999Z" fill="current"/>
<path fill-rule="evenodd" clip-rule="evenodd" d="M8.25495 1.32352C8.28099 1.32352 8.30712 1.32352 8.33333 1.32352L11.7451 1.32352C12.8566 1.32346 13.807 1.32342 14.5666 1.42554C15.3779 1.53461 16.1452 1.7792 16.7663 2.40034C17.3875 3.02147 17.632 3.78881 17.7411 4.60005C17.8432 5.35965 17.8432 6.3101 17.8431 7.4216L17.8431 13.2803C17.8432 14.3206 17.8433 15.2306 17.7428 15.9181C17.6414 16.6123 17.3806 17.5049 16.4774 17.9438C15.5742 18.3828 14.7112 18.0365 14.1027 17.6874C13.5 17.3416 12.7845 16.7793 11.9666 16.1366L11.3326 15.6384C10.8156 15.2322 10.5087 14.9936 10.2637 14.8445C10.1519 14.7765 10.0847 14.7475 10.0474 14.7349C10.0172 14.7246 10.0058 14.7246 10.0003 14.7246C9.99484 14.7246 9.98283 14.7246 9.95263 14.7349C9.91533 14.7475 9.84813 14.7765 9.73633 14.8445C9.49133 14.9936 9.18438 15.2322 8.66744 15.6384L8.10473 16.0805C8.08088 16.0993 8.05711 16.118 8.03343 16.1366C7.21554 16.7793 6.49998 17.3416 5.89732 17.6874C5.28882 18.0365 4.42583 18.3828 3.52263 17.9438C2.61943 17.5049 2.35863 16.6123 2.25718 15.9181C2.1567 15.2306 2.15677 14.3206 2.15686 13.2804C2.15686 13.2502 2.15686 13.22 2.15686 13.1897V7.49999C2.15686 7.47378 2.15686 7.44765 2.15686 7.42161C2.1568 6.3101 2.15676 5.35965 2.25888 4.60005C2.36795 3.78881 2.61254 3.02147 3.23368 2.40034C3.85481 1.7792 4.62215 1.53461 5.43339 1.42554C6.19299 1.32342 7.14344 1.32346 8.25495 1.32352ZM5.74692 3.7575C5.19659 3.83149 5.00855 3.95302 4.89746 4.06412C4.78636 4.17521 4.66483 4.36325 4.59084 4.91357C4.5123 5.49775 4.5098 6.28822 4.5098 7.49999V13.1897C4.5098 14.3477 4.51287 15.0817 4.58538 15.5779C4.59281 15.6287 4.60041 15.6728 4.60786 15.711C4.64249 15.6933 4.6819 15.672 4.72646 15.6464C5.16138 15.3969 5.74044 14.9459 6.65104 14.2304L7.26116 13.751C7.7146 13.3946 8.1332 13.0657 8.51342 12.8344C8.93397 12.5785 9.4162 12.3717 10 12.3717C10.5838 12.3717 11.066 12.5785 11.4866 12.8344C11.8668 13.0657 12.2854 13.3947 12.7389 13.751C12.7546 13.7634 12.7704 13.7758 12.7863 13.7883L13.349 14.2304C14.2596 14.9458 14.8386 15.3969 15.2735 15.6464C15.3181 15.672 15.3575 15.6933 15.3921 15.711C15.3996 15.6728 15.4072 15.6287 15.4146 15.5779C15.4871 15.0817 15.4902 14.3477 15.4902 13.1897V7.49999C15.4902 6.28822 15.4877 5.49775 15.4092 4.91357C15.3352 4.36325 15.2136 4.17521 15.1025 4.06412C14.9914 3.95302 14.8034 3.83149 14.2531 3.7575C13.6689 3.67896 12.8784 3.67646 11.6667 3.67646H8.33333C7.12156 3.67646 6.33109 3.67896 5.74692 3.7575ZM15.3279 15.9313C15.3279 15.9313 15.3297 15.9265 15.3344 15.9196C15.3304 15.9283 15.3279 15.9313 15.3279 15.9313ZM15.5917 15.7945C15.6002 15.7951 15.6051 15.7966 15.6051 15.7966C15.6051 15.7966 15.6011 15.7967 15.5917 15.7945ZM4.39495 15.7966C4.39495 15.7966 4.39983 15.7951 4.40825 15.7945C4.39893 15.7967 4.39495 15.7966 4.39495 15.7966ZM4.66556 15.9195C4.67029 15.9265 4.67212 15.9313 4.67212 15.9313C4.67212 15.9313 4.66957 15.9283 4.66556 15.9195Z" fill="current"/>
</svg>
