<svg width="17" height="17" viewBox="0 0 17 17" fill="none" xmlns="http://www.w3.org/2000/svg">
<path fill-rule="evenodd" clip-rule="evenodd" d="M8.5 17C13.1944 17 17 13.1944 17 8.5C17 3.80558 13.1944 0 8.5 0C3.80558 0 0 3.80558 0 8.5C0 13.1944 3.80558 17 8.5 17ZM13.0033 6.27129C13.3372 5.87058 13.2831 5.27505 12.8824 4.94112C12.4817 4.6072 11.8862 4.66134 11.5522 5.06205L8.15417 9.13973C7.82671 9.53268 7.64263 9.75022 7.49566 9.88391L7.49004 9.88899L7.48398 9.88444C7.32551 9.76461 7.12249 9.56462 6.7608 9.20293L5.39005 7.83218C5.02122 7.46335 4.42323 7.46335 4.0544 7.83218C3.68557 8.201 3.68557 8.799 4.0544 9.16782L5.46372 10.5771C5.77207 10.8856 6.06871 11.1824 6.34472 11.3911C6.6539 11.6249 7.0588 11.8447 7.57768 11.8212C8.09657 11.7976 8.47991 11.542 8.76665 11.2812C9.02262 11.0484 9.29118 10.726 9.57034 10.3909L13.0033 6.27129Z" fill="#3F7E8C"/>
</svg>
