<svg width="12" height="12" viewBox="0 0 12 12" fill="none" xmlns="http://www.w3.org/2000/svg">
<path fill-rule="evenodd" clip-rule="evenodd" d="M0 9.6C0 10.7314 0 11.2971 0.351472 11.6485C0.702944 12 1.26863 12 2.4 12H9.6C10.7314 12 11.2971 12 11.6485 11.6485C12 11.2971 12 10.7314 12 9.6V6.6C12 6.31716 12 6.17574 11.9121 6.08787C11.8243 6 11.6828 6 11.4 6H0.6C0.317157 6 0.175736 6 0.087868 6.08787C0 6.17574 0 6.31716 0 6.6V9.6ZM3 7.8C3 7.51716 3 7.37574 3.08787 7.28787C3.17574 7.2 3.31716 7.2 3.6 7.2H4.8C5.08284 7.2 5.22426 7.2 5.31213 7.28787C5.4 7.37574 5.4 7.51716 5.4 7.8C5.4 8.08284 5.4 8.22427 5.31213 8.31213C5.22426 8.4 5.08284 8.4 4.8 8.4H3.6C3.31716 8.4 3.17574 8.4 3.08787 8.31213C3 8.22427 3 8.08284 3 7.8ZM3.08787 9.68787C3 9.77574 3 9.91716 3 10.2C3 10.4828 3 10.6243 3.08787 10.7121C3.17574 10.8 3.31716 10.8 3.6 10.8H4.8C5.08284 10.8 5.22426 10.8 5.31213 10.7121C5.4 10.6243 5.4 10.4828 5.4 10.2C5.4 9.91716 5.4 9.77574 5.31213 9.68787C5.22426 9.6 5.08284 9.6 4.8 9.6H3.6C3.31716 9.6 3.17574 9.6 3.08787 9.68787ZM6.6 7.8C6.6 7.51716 6.6 7.37574 6.68787 7.28787C6.77574 7.2 6.91716 7.2 7.2 7.2H8.4C8.68284 7.2 8.82426 7.2 8.91213 7.28787C9 7.37574 9 7.51716 9 7.8C9 8.08284 9 8.22427 8.91213 8.31213C8.82426 8.4 8.68284 8.4 8.4 8.4H7.2C6.91716 8.4 6.77574 8.4 6.68787 8.31213C6.6 8.22427 6.6 8.08284 6.6 7.8ZM6.68787 9.68787C6.6 9.77574 6.6 9.91716 6.6 10.2C6.6 10.4828 6.6 10.6243 6.68787 10.7121C6.77574 10.8 6.91716 10.8 7.2 10.8H8.4C8.68284 10.8 8.82426 10.8 8.91213 10.7121C9 10.6243 9 10.4828 9 10.2C9 9.91716 9 9.77574 8.91213 9.68787C8.82426 9.6 8.68284 9.6 8.4 9.6H7.2C6.91716 9.6 6.77574 9.6 6.68787 9.68787Z" fill="#CCCCCC"/>
<path d="M0 4.2C0 3.06863 0 2.50294 0.351472 2.15147C0.702944 1.8 1.26863 1.8 2.4 1.8H9.6C10.7314 1.8 11.2971 1.8 11.6485 2.15147C12 2.50294 12 3.06863 12 4.2C12 4.48284 12 4.62426 11.9121 4.71213C11.8243 4.8 11.6828 4.8 11.4 4.8H0.6C0.317157 4.8 0.175736 4.8 0.087868 4.71213C0 4.62426 0 4.48284 0 4.2Z" fill="#CCCCCC"/>
<path fill-rule="evenodd" clip-rule="evenodd" d="M3 0C3.33137 7.46171e-08 3.6 0.268629 3.6 0.6L3.6 2.4C3.6 2.73137 3.33137 3 3 3C2.66863 3 2.4 2.73137 2.4 2.4L2.4 0.6C2.4 0.268629 2.66863 -7.46171e-08 3 0Z" fill="#CCCCCC"/>
<path fill-rule="evenodd" clip-rule="evenodd" d="M9 0C9.33137 7.46171e-08 9.6 0.268629 9.6 0.6L9.6 2.4C9.6 2.73137 9.33137 3 9 3C8.66863 3 8.4 2.73137 8.4 2.4L8.4 0.6C8.4 0.268629 8.66863 -7.46171e-08 9 0Z" fill="#CCCCCC"/>
</svg>
