<svg width="26" height="26" viewBox="0 0 26 26" fill="none" xmlns="http://www.w3.org/2000/svg">
<path d="M24.375 22.7435H23.8333V22.2006C23.8333 19.5066 21.6461 17.3142 18.9583 17.3142H17.3333V16.7713C17.3333 15.8733 18.0624 15.1425 18.9583 15.1425H21.3958C23.9341 15.1425 26 13.0718 26 10.5277C26 7.9835 23.9341 5.91278 21.3958 5.91278H18.7265C17.4547 5.4122 12.8483 3.49675 9.51708 0.737594C8.55508 -0.0594237 7.26158 -0.222302 6.13925 0.306509C5.02558 0.833149 4.33333 1.93095 4.33333 3.17208V11.9718C4.33333 13.213 5.02558 14.3108 6.13925 14.8374C6.57475 15.0426 7.03625 15.1436 7.49342 15.1436C8.21492 15.1436 8.92883 14.8928 9.51708 14.4052C12.9968 11.5245 17.8956 9.55147 18.8847 9.16925H21.3958C22.1423 9.16925 22.75 9.77842 22.75 10.5266C22.75 11.2747 22.1423 11.8839 21.3958 11.8839H18.9583C16.2706 11.8839 14.0833 14.0762 14.0833 16.7702V17.3132H7.04167C4.35392 17.3132 2.16667 19.5055 2.16667 22.1995V22.7424H1.625C0.726917 22.7424 0 23.471 0 24.3712C0 25.2714 0.726917 26 1.625 26H24.375C25.2731 26 26 25.2714 26 24.3712C26 23.471 25.2731 22.7435 24.375 22.7435ZM7.58333 11.7829V3.36102C9.77492 5.14833 12.3673 6.58275 14.4116 7.57196C12.3673 8.56118 9.77708 9.99559 7.58333 11.7829ZM5.41667 22.2006C5.41667 21.3026 6.14575 20.5718 7.04167 20.5718H18.9583C19.8543 20.5718 20.5833 21.3026 20.5833 22.2006V22.7435H5.41667V22.2006Z" fill="white"/>
</svg>
