<svg width="26" height="26" viewBox="0 0 26 26" fill="none" xmlns="http://www.w3.org/2000/svg">
<path d="M24.25 22.6438H20.0939L14.6071 17.1568V8.30855L16.4639 6.45169C16.7275 6.52134 16.9996 6.5717 17.2857 6.5717C19.0611 6.5717 20.5 5.13271 20.5 3.35728C20.5 1.58185 19.0611 0.142857 17.2857 0.142857C15.5104 0.142857 14.0714 1.58185 14.0714 3.35728C14.0714 3.64336 14.1207 3.91551 14.1914 4.1791L9.18571 9.18502C8.55785 9.8129 8.55785 10.8297 9.18571 11.4576C9.49964 11.7716 9.91107 11.928 10.3225 11.928C10.7082 11.928 11.0886 11.7769 11.3939 11.5005V17.1557L5.90714 22.6427H1.75C0.861781 22.6427 0.142853 23.3628 0.142853 24.2499C0.142853 25.1371 0.861781 25.8571 1.75 25.8571H24.25C25.1371 25.8571 25.8571 25.1371 25.8571 24.2499C25.8571 23.3628 25.1371 22.6438 24.25 22.6438ZM13 20.0948L15.5489 22.6438H10.4511L13 20.0948Z" fill="white"/>
</svg>
