<svg width="32" height="32" viewBox="0 0 32 32" fill="none" xmlns="http://www.w3.org/2000/svg">
<path d="M6.0003 3.33333C6.0003 1.492 7.49238 0 9.3338 0C11.1752 0 12.6673 1.492 12.6673 3.33333C12.6673 5.17467 11.1752 6.66667 9.3338 6.66667C7.49238 6.66667 6.0003 5.17467 6.0003 3.33333ZM30.9682 16.6333L22.3011 18.6333C22.3011 18.6333 22.2918 18.6333 22.2865 18.6347C20.6344 19.8 18.6196 20.9067 16.3528 21.8267C15.7968 22.052 15.2328 22.2587 14.6674 22.4533V30.6667C14.6674 31.4027 14.07 32 13.334 32C12.598 32 12.0006 31.4027 12.0006 30.6667V23.252C10.1512 23.7187 8.35109 23.9907 6.77368 23.9907C4.28822 23.9907 2.35079 23.3333 1.61475 21.772C0.582696 19.58 2.40545 16.7733 6.50433 14.1453C3.09349 10.168 0 5.23067 0 1.33333C0 0.597333 0.597363 0 1.3334 0C2.06944 0 2.6668 0.597333 2.6668 1.33333C2.6668 3.052 3.61618 5.42667 5.2336 8H12.8793C14.9221 6.472 15.9995 3.54933 15.9995 1.33333C15.9995 0.597333 16.5968 0 17.3329 0C18.0689 0 18.6663 0.597333 18.6663 1.33333C18.6663 4.00933 17.4569 7.63467 14.8581 9.82667C14.9221 10.0147 14.9994 10.228 15.0981 10.4707C16.3102 10.1067 17.7809 9.66267 19.829 9.39867C24.2426 9.024 25.8253 10.3667 26.3853 11.5547C26.644 12.1053 26.856 13.012 26.3893 14.204C26.2813 14.4813 26.1226 14.7653 25.948 15.052L30.3655 14.032C31.0789 13.8693 31.7989 14.3133 31.9656 15.032C32.131 15.7507 31.6843 16.4653 30.9656 16.632L30.9682 16.6333ZM7.09902 10.6667C8.28708 12.2147 9.67116 13.776 11.1939 15.2613C11.8073 15.8613 12.6846 16.0453 13.486 15.744C13.9047 15.584 14.3447 15.3667 14.7901 15.0973C13.4127 13.3893 12.686 11.7147 12.33 10.6667H7.09902ZM23.9745 12.6933C23.8052 12.3333 22.6051 11.8373 20.113 12.052C18.5623 12.2533 17.4475 12.5573 16.4102 12.8653C16.5462 13.0613 16.6795 13.256 16.8355 13.4547C17.3182 14.0667 17.5156 14.8573 17.3769 15.6213C17.2435 16.356 16.8035 16.9973 16.1701 17.3813C15.5875 17.7333 15.0021 18.0227 14.4314 18.24C13.878 18.4493 13.2993 18.5507 12.726 18.552C11.4792 18.552 10.2512 18.072 9.33114 17.1733C9.00179 16.852 8.6671 16.5107 8.33109 16.1613C4.88691 18.2853 3.79086 20.1347 4.0282 20.6373C4.42022 21.4707 8.74711 22.0387 15.3514 19.3573C20.1637 17.404 23.2998 14.8 23.9092 13.2373C23.9639 13.0973 24.0452 12.8413 23.9759 12.6947L23.9745 12.6933Z" fill="white"/>
</svg>
