<svg width="16" height="14" viewBox="0 0 16 14" fill="none" xmlns="http://www.w3.org/2000/svg">
<path d="M8.58721 0.00988224C8.71207 0.00332171 8.83779 0 8.9643 0C12.85 0 16 3.13401 16 7C16 10.866 12.85 14 8.9643 14C7.63065 14 6.38369 13.6308 5.32099 12.9896C9.03137 12.7946 11.9796 9.73959 11.9796 5.99946C11.9796 3.46034 10.6208 1.23697 8.58721 0.00988224Z" fill="#71736F"/>
<path d="M2.33069 5.2C2.43258 5.50412 2.48352 5.65618 2.53448 5.7225C2.73562 5.98431 3.13188 5.98431 3.33302 5.7225C3.38397 5.65618 3.43492 5.50412 3.53681 5.2C3.619 4.95468 3.6601 4.83201 3.71326 4.72099C3.91162 4.30672 4.24713 3.97291 4.66352 3.77555C4.77511 3.72266 4.8984 3.68177 5.14497 3.6C5.45064 3.49863 5.60347 3.44794 5.67014 3.39724C5.93328 3.19712 5.93328 2.80288 5.67014 2.60276C5.60347 2.55206 5.45064 2.50137 5.14497 2.4C4.8984 2.31823 4.77511 2.27734 4.66352 2.22445C4.24713 2.02709 3.91162 1.69329 3.71326 1.27901C3.6601 1.16799 3.619 1.04532 3.53681 0.8C3.43492 0.495883 3.38397 0.343825 3.33302 0.277497C3.13188 0.015686 2.73562 0.015686 2.53448 0.277497C2.48352 0.343825 2.43258 0.495883 2.33069 0.8C2.2485 1.04532 2.2074 1.16799 2.15424 1.27901C1.95588 1.69329 1.62037 2.02709 1.20398 2.22445C1.09239 2.27734 0.969103 2.31823 0.722528 2.4C0.41686 2.50137 0.264025 2.55206 0.19736 2.60276C-0.0657867 2.80288 -0.0657867 3.19712 0.19736 3.39724C0.264025 3.44794 0.41686 3.49863 0.722528 3.6C0.969103 3.68177 1.09239 3.72266 1.20398 3.77555C1.62037 3.97291 1.95588 4.30672 2.15424 4.72099C2.2074 4.83201 2.2485 4.95468 2.33069 5.2Z" fill="#71736F"/>
</svg>
