<svg width="10" height="13" viewBox="0 0 10 13" fill="none" xmlns="http://www.w3.org/2000/svg">
<path fill-rule="evenodd" clip-rule="evenodd" d="M5 0L5 3.28536C4.99994 3.56101 4.99989 3.82889 5.02846 4.04984C5.06066 4.29892 5.13911 4.58315 5.36612 4.81924C5.59313 5.05533 5.86642 5.13692 6.10593 5.17041C6.31837 5.20011 6.57594 5.20006 6.84097 5.2L10 5.2V9.1C10 10.9385 10 11.8577 9.45083 12.4289C8.90165 13 8.01777 13 6.25 13H3.75C1.98223 13 1.09835 13 0.549175 12.4289C0 11.8577 0 10.9385 0 9.1V3.9C0 2.06152 0 1.14228 0.549175 0.571142C1.09835 0 1.98223 0 3.75 0H5ZM6.25 0.00300349V3.25C6.25 3.57479 6.25133 3.75299 6.26731 3.87662L6.26793 3.88135L6.27248 3.882C6.39135 3.89862 6.5627 3.9 6.875 3.9H9.99711C9.99074 3.63243 9.97032 3.45537 9.90485 3.29099C9.8097 3.05209 9.62906 2.86422 9.26777 2.48848L7.60723 0.761522C7.24595 0.385783 7.0653 0.197913 6.83559 0.0989566C6.67753 0.0308678 6.50728 0.00962867 6.25 0.00300349ZM2.5 7.15C2.5 6.79101 2.77982 6.5 3.125 6.5L6.875 6.5C7.22018 6.5 7.5 6.79102 7.5 7.15C7.5 7.50899 7.22018 7.8 6.875 7.8L3.125 7.8C2.77982 7.8 2.5 7.50898 2.5 7.15ZM3.125 9.1C2.77982 9.1 2.5 9.39101 2.5 9.75C2.5 10.109 2.77982 10.4 3.125 10.4H5.625C5.97018 10.4 6.25 10.109 6.25 9.75C6.25 9.39102 5.97018 9.1 5.625 9.1H3.125Z" fill="#CCCCCC"/>
</svg>
