<svg width="24" height="27" viewBox="0 0 24 27" fill="none" xmlns="http://www.w3.org/2000/svg">
<path fill-rule="evenodd" clip-rule="evenodd" d="M24 6C24 3.17157 24 1.75736 23.1213 0.87868C22.2426 0 20.8284 0 18 0H6C3.17157 0 1.75736 0 0.87868 0.87868C0 1.75736 0 3.17157 0 6V23.25C0 23.7718 0.106579 24.2687 0.299152 24.7202C0.870909 26.0605 2.20074 27 3.75 27H18C20.8284 27 22.2426 27 23.1213 26.1213C24 25.2426 24 23.8284 24 21V6ZM3 21.128V23.25C3 23.6642 3.33579 24 3.75 24H18C19.499 24 20.3215 23.9936 20.8921 23.9169C20.8995 23.9159 20.9068 23.9149 20.9139 23.9139C20.9149 23.9068 20.9159 23.8995 20.9169 23.8921C20.9936 23.3215 21 22.499 21 21V20.93C20.176 21.0001 19.2006 21.0001 18.0987 21L3.75 21C3.48702 21 3.23458 21.0451 3 21.128ZM21 17.9152V6C21 4.50098 20.9936 3.6785 20.9169 3.10793C20.9159 3.10049 20.9149 3.09321 20.9139 3.08608C20.9068 3.08508 20.8995 3.08408 20.8921 3.08308C20.3215 3.00637 19.499 3 18 3H6C4.50098 3 3.6785 3.00637 3.10793 3.08308C3.10049 3.08408 3.09321 3.08508 3.08608 3.08608C3.08508 3.09321 3.08408 3.10049 3.08308 3.10793C3.00637 3.6785 3 4.50098 3 6V18.0532C3.24495 18.0181 3.49536 18 3.75 18H18C19.3933 18 20.3153 17.9971 21 17.9152ZM2.79281 3.14521L2.79553 3.14421ZM21.2072 3.14521L21.2045 3.14421ZM20.8548 24.2072L20.8558 24.2045ZM6 7.5C6 6.67157 6.67157 6 7.5 6L16.5 6C17.3284 6 18 6.67157 18 7.5C18 8.32843 17.3284 9 16.5 9L7.5 9C6.67157 9 6 8.32843 6 7.5Z" fill="white"/>
</svg>
