<svg width="26" height="26" viewBox="0 0 26 26" fill="none" xmlns="http://www.w3.org/2000/svg">
<path d="M22.1071 0.142857H3.89286C1.825 0.142857 0.142857 1.825 0.142857 3.89286V25.8571H25.8571V3.89286C25.8571 1.825 24.175 0.142857 22.1071 0.142857ZM22.6429 22.6429H3.35714V3.89286C3.35714 3.59286 3.59286 3.35714 3.89286 3.35714H22.1071C22.4071 3.35714 22.6429 3.59286 22.6429 3.89286V22.6429ZM5.5 8.17857C5.5 6.7 6.7 5.5 8.17857 5.5C9.65714 5.5 10.8571 6.7 10.8571 8.17857C10.8571 9.65714 9.65714 10.8571 8.17857 10.8571C6.7 10.8571 5.5 9.65714 5.5 8.17857ZM20.5 10.8571H15.1429V5.5H20.5V10.8571ZM8.13571 14.6071L11.35 17.8214L8.13571 21.0357L4.92143 17.8214L8.13571 14.6071ZM17.8214 15.1429L21.1643 20.5H14.4679L17.8107 15.1429H17.8214Z" fill="white"/>
</svg>
