<svg width="26" height="27" viewBox="0 0 26 27" fill="none" xmlns="http://www.w3.org/2000/svg">
<path d="M7.64174 0.285713C5.65361 0.288051 3.74756 1.10321 2.34173 2.55237C0.935912 4.00152 0.145125 5.96633 0.142857 8.01574C0.142857 12.7167 3.22275 17.9544 7.64174 17.9544C12.0607 17.9544 15.1406 12.7167 15.1406 8.01574C15.1384 5.96633 14.3476 4.00152 12.9417 2.55237C11.5359 1.10321 9.62987 0.288051 7.64174 0.285713ZM11.5165 13.1463L9.69536 11.9735C10.2686 11.1176 10.6559 10.1443 10.8309 9.12003H12.9734C12.8089 10.5633 12.3091 11.9445 11.5165 13.1463ZM19.4257 1.39C18.0924 1.3715 16.785 1.77042 15.6763 2.53405C16.7254 4.15755 17.2846 6.06501 17.2832 8.01574C17.2666 10.4531 16.6392 12.8446 15.462 14.9584C15.9618 15.5367 16.5715 16.003 17.2533 16.3284C17.9352 16.6538 18.6746 16.8314 19.4257 16.8501C22.9705 16.8501 25.8533 12.8868 25.8533 8.01574C25.8832 7.13733 25.7375 6.26197 25.425 5.44414C25.1126 4.62631 24.6402 3.88352 24.0373 3.262C23.4344 2.64049 22.7138 2.15355 21.9204 1.83149C21.127 1.50943 20.2778 1.35915 19.4257 1.39ZM21.9025 13.2633L20.497 11.6025C21.0869 10.9068 21.4527 10.0393 21.5436 9.12003H23.6861C23.5969 10.678 22.9632 12.1498 21.9025 13.2633ZM23.0809 26.8571L21.1933 25.8136C21.9582 24.3449 21.5768 24.0412 19.9978 23.1114C19.39 22.8575 18.841 22.4741 18.3869 21.9863C17.9328 21.4986 17.5837 20.9175 17.3624 20.2811C17.2546 19.7688 17.2609 19.2379 17.3806 18.7285C18.0425 18.9432 18.7318 19.0545 19.4257 19.0586C19.4525 19.0586 19.4771 19.0586 19.5039 19.0586C19.4281 19.2914 19.4093 19.5399 19.4493 19.782C19.5725 20.3231 20.2956 20.7482 21.0615 21.1999C22.4842 22.0314 24.8645 23.4327 23.0809 26.8571ZM11.9268 24.5801C11.8601 25.3744 11.5906 26.1364 11.1459 26.7887L9.30971 25.6546C9.54068 25.3356 9.70252 24.9691 9.78428 24.5801C9.78428 24.1892 9.14152 23.827 8.23415 23.3599C7.08039 22.7646 5.4992 21.9497 5.4992 20.1629C5.50702 20.0648 5.5217 19.9674 5.54312 19.8714C6.22679 20.0653 6.93268 20.1633 7.64174 20.1629H7.66745C7.65888 20.1883 7.6396 20.2292 7.63531 20.248C7.64174 20.5561 8.2845 20.9183 9.19187 21.3854C10.3456 21.9784 11.9268 22.7934 11.9268 24.5801Z" fill="white"/>
</svg>
