<svg width="40" height="40" viewBox="0 0 40 40" fill="none" xmlns="http://www.w3.org/2000/svg">
<path d="M27.6515 27.4054C28.2043 27.2902 28.5336 26.7117 28.2589 26.2183C27.6533 25.1307 26.6993 24.1749 25.4788 23.4465C23.907 22.5085 21.9812 22 20 22C18.0188 22 16.0929 22.5085 14.5211 23.4465C13.3007 24.1749 12.3467 25.1307 11.7411 26.2183C11.4664 26.7117 11.7956 27.2902 12.3484 27.4054C17.3952 28.4572 22.6047 28.4572 27.6515 27.4054Z" fill="white"/>
<path d="M25 16C25 18.7614 22.7614 21 20 21C17.2386 21 15 18.7614 15 16C15 13.2386 17.2386 11 20 11C22.7614 11 25 13.2386 25 16Z" fill="white"/>
</svg>
