<svg width="40" height="40" viewBox="0 0 40 40" fill="none" xmlns="http://www.w3.org/2000/svg">
<path fill-rule="evenodd" clip-rule="evenodd" d="M20.8732 25.0138C22.2634 24.2831 27.0625 21.4155 27.0625 16.65C27.0625 12.9773 24.1244 10 20.5 10C16.8756 10 13.9375 12.9773 13.9375 16.65C13.9375 21.4155 18.7366 24.2831 20.1268 25.0138C20.3639 25.1384 20.6361 25.1384 20.8732 25.0138ZM20.5 19.5C22.0533 19.5 23.3125 18.224 23.3125 16.65C23.3125 15.076 22.0533 13.8 20.5 13.8C18.9467 13.8 17.6875 15.076 17.6875 16.65C17.6875 18.224 18.9467 19.5 20.5 19.5Z" fill="white"/>
<path fill-rule="evenodd" clip-rule="evenodd" d="M25.4305 23.2088C25.7391 22.7875 26.3263 22.6995 26.7421 23.0122C27.4428 23.5393 28 24.28 28 25.2C28 26.12 27.4428 26.8607 26.7421 27.3878C26.0331 27.9211 25.0765 28.3221 24.0064 28.5904C22.9269 28.861 21.7189 29 20.5 29C19.2811 29 18.0731 28.861 16.9936 28.5904C15.9235 28.3221 14.9669 27.9211 14.2579 27.3878C13.5572 26.8607 13 26.12 13 25.2C13 24.28 13.5572 23.5393 14.2579 23.0122C14.6737 22.6995 15.2609 22.7875 15.5695 23.2088C15.8781 23.63 15.7912 24.2251 15.3755 24.5378C14.9243 24.8772 14.875 25.1195 14.875 25.2C14.875 25.2805 14.9243 25.5228 15.3755 25.8622C15.8185 26.1954 16.5188 26.514 17.4439 26.746C18.3596 26.9756 19.4149 27.1 20.5 27.1C21.5851 27.1 22.6404 26.9756 23.5561 26.746C24.4812 26.514 25.1815 26.1954 25.6245 25.8622C26.0757 25.5228 26.125 25.2805 26.125 25.2C26.125 25.1195 26.0757 24.8772 25.6245 24.5378C25.2088 24.2251 25.1219 23.63 25.4305 23.2088Z" fill="white"/>
</svg>
