<svg width="28" height="28" viewBox="0 0 28 28" fill="none" xmlns="http://www.w3.org/2000/svg">
<path fill-rule="evenodd" clip-rule="evenodd" d="M6.15358 11.8139C5.83337 12.5101 5.83337 13.3021 5.83337 14.8861V19.8333C5.83337 22.0331 5.83337 23.1331 6.51679 23.8165C7.15563 24.4553 8.15842 24.497 10.0834 24.4997V18.6667C10.0834 17.47 11.0534 16.5 12.25 16.5H15.75C16.9467 16.5 17.9167 17.47 17.9167 18.6667V24.4997C19.8417 24.497 20.8445 24.4553 21.4833 23.8165C22.1667 23.1331 22.1667 22.0331 22.1667 19.8333V14.8861C22.1667 13.3021 22.1667 12.5101 21.8465 11.8139C21.5263 11.1177 20.9249 10.6022 19.7222 9.57134L18.5556 8.57134C16.3817 6.70803 15.2948 5.77637 14 5.77637C12.7053 5.77637 11.6184 6.70803 9.4445 8.57134L8.27783 9.57134C7.07513 10.6022 6.47378 11.1177 6.15358 11.8139ZM15.9167 24.4999V18.6667C15.9167 18.5746 15.8421 18.5 15.75 18.5H12.25C12.158 18.5 12.0834 18.5746 12.0834 18.6667V24.4999H15.9167Z" fill="white"/>
</svg>
