<svg width="18" height="20" viewBox="0 0 18 20" fill="none" xmlns="http://www.w3.org/2000/svg">
<path d="M1.15354 6.81387C0.833336 7.51006 0.833336 8.30209 0.833336 9.88614V14.8333C0.833336 17.0331 0.833336 18.1331 1.51675 18.8165C2.15559 19.4553 3.15838 19.497 5.08334 19.4997V13.6667C5.08334 12.47 6.05339 11.5 7.25 11.5H10.75C11.9466 11.5 12.9167 12.47 12.9167 13.6667V19.4997C14.8416 19.497 15.8444 19.4553 16.4833 18.8165C17.1667 18.1331 17.1667 17.0331 17.1667 14.8333V9.88614C17.1667 8.30209 17.1667 7.51006 16.8465 6.81387C16.5263 6.11767 15.9249 5.60223 14.7222 4.57134L13.5555 3.57134C11.3817 1.70803 10.2947 0.776367 9 0.776367C7.70527 0.776367 6.61833 1.70803 4.44446 3.57134L3.2778 4.57134C2.0751 5.60223 1.47375 6.11767 1.15354 6.81387Z" fill="white"/>
<path d="M10.9167 19.4999V13.6667C10.9167 13.5746 10.842 13.5 10.75 13.5H7.25C7.15796 13.5 7.08334 13.5746 7.08334 13.6667V19.4999H10.9167Z" fill="white"/>
</svg>
