<svg width="17" height="17" viewBox="0 0 17 17" fill="none" xmlns="http://www.w3.org/2000/svg">
<path fill-rule="evenodd" clip-rule="evenodd" d="M17 8.5C17 13.1944 13.1944 17 8.5 17C3.80558 17 0 13.1944 0 8.5C0 3.80558 3.80558 0 8.5 0C13.1944 0 17 3.80558 17 8.5ZM9.44444 4.72222C9.44444 5.24382 9.0216 5.66667 8.5 5.66667C7.9784 5.66667 7.55556 5.24382 7.55556 4.72222C7.55556 4.20062 7.9784 3.77778 8.5 3.77778C9.0216 3.77778 9.44444 4.20062 9.44444 4.72222ZM9.44444 13.2222V7.55556H7.55556V13.2222H9.44444Z" fill="#30618C"/>
</svg>
