<svg width="26" height="26" viewBox="0 0 26 26" fill="none" xmlns="http://www.w3.org/2000/svg">
<path d="M12.5293 15.0025L18.4159 9.11587V16.7921C18.4159 21.8694 14.2853 26 9.20795 26C6.74889 26 4.43715 25.0424 2.69739 23.3037C0.95871 21.565 0 19.2522 0 16.7921C0 11.7147 4.13058 7.5841 9.20795 7.5841H16.8841L10.9975 13.4707C10.4624 13.1804 9.85792 13.0005 9.20795 13.0005C7.1172 13.0005 5.41644 14.7013 5.41644 16.7921C5.41644 18.8828 7.1172 20.5836 9.20795 20.5836C11.2987 20.5836 12.9995 18.8828 12.9995 16.7921C12.9995 16.141 12.8196 15.5376 12.5293 15.0025ZM9.20795 15.1671C8.31207 15.1671 7.58302 15.8962 7.58302 16.7921C7.58302 17.6879 8.31207 18.417 9.20795 18.417C10.1038 18.417 10.8329 17.6879 10.8329 16.7921C10.8329 15.8962 10.1038 15.1671 9.20795 15.1671ZM26 3.44702L22.553 0L19.4992 2.16766L19.1493 5.31894L16.8841 7.5841L18.4159 9.11587L20.6811 6.85071L23.8323 6.50081L26 3.44702Z" fill="white"/>
</svg>
