<svg width="18" height="18" viewBox="0 0 14 17" fill="none" xmlns="http://www.w3.org/2000/svg">
<path fill-rule="evenodd" clip-rule="evenodd" d="M7.34828 13.4334C8.64585 12.7796 13.125 10.2139 13.125 5.95C13.125 2.66391 10.3827 0 7 0C3.61726 0 0.875 2.66391 0.875 5.95C0.875 10.2139 5.35415 12.7796 6.65172 13.4334C6.87297 13.5449 7.12703 13.5449 7.34828 13.4334ZM7 8.5C8.44975 8.5 9.625 7.35833 9.625 5.95C9.625 4.54167 8.44975 3.4 7 3.4C5.55025 3.4 4.375 4.54167 4.375 5.95C4.375 7.35833 5.55025 8.5 7 8.5Z" fill="#71736F"/>
<path fill-rule="evenodd" clip-rule="evenodd" d="M11.6018 11.8184C11.8899 11.4414 12.4379 11.3627 12.8259 11.6425C13.4799 12.1141 14 12.7768 14 13.6C14 14.4232 13.4799 15.0859 12.8259 15.5575C12.1643 16.0346 11.2714 16.3934 10.2727 16.6335C9.26509 16.8757 8.1376 17 7 17C5.8624 17 4.73491 16.8757 3.72733 16.6335C2.72858 16.3934 1.83573 16.0346 1.17406 15.5575C0.520054 15.0859 2.08616e-07 14.4232 0 13.6C-2.08616e-07 12.7768 0.520053 12.1141 1.17406 11.6425C1.56209 11.3627 2.11014 11.4414 2.39818 11.8184C2.68622 12.1953 2.60516 12.7277 2.21713 13.0075C1.79597 13.3112 1.75 13.5279 1.75 13.6C1.75 13.6721 1.79597 13.8888 2.21713 14.1925C2.63062 14.4907 3.28418 14.7757 4.14767 14.9832C5.00233 15.1887 5.98728 15.3 7 15.3C8.01273 15.3 8.99768 15.1887 9.85233 14.9832C10.7158 14.7757 11.3694 14.4907 11.7829 14.1925C12.204 13.8888 12.25 13.6721 12.25 13.6C12.25 13.5279 12.204 13.3112 11.7829 13.0075C11.3948 12.7277 11.3138 12.1953 11.6018 11.8184Z" fill="#71736F"/>
</svg>
