<svg width="15" height="19" viewBox="0 0 15 19" fill="none" xmlns="http://www.w3.org/2000/svg">
<path fill-rule="evenodd" clip-rule="evenodd" d="M7.87316 15.0138C9.26341 14.2831 14.0625 11.4155 14.0625 6.65C14.0625 2.97731 11.1244 0 7.5 0C3.87563 0 0.9375 2.97731 0.9375 6.65C0.9375 11.4155 5.73659 14.2831 7.12684 15.0138C7.3639 15.1384 7.6361 15.1384 7.87316 15.0138ZM7.5 9.5C9.0533 9.5 10.3125 8.22401 10.3125 6.65C10.3125 5.07599 9.0533 3.8 7.5 3.8C5.9467 3.8 4.6875 5.07599 4.6875 6.65C4.6875 8.22401 5.9467 9.5 7.5 9.5Z" fill="white"/>
<path fill-rule="evenodd" clip-rule="evenodd" d="M12.4305 13.2088C12.7391 12.7875 13.3263 12.6995 13.7421 13.0122C14.4428 13.5393 15 14.28 15 15.2C15 16.12 14.4428 16.8607 13.7421 17.3878C13.0331 17.9211 12.0765 18.3221 11.0064 18.5904C9.92688 18.861 8.71886 19 7.5 19C6.28115 19 5.07312 18.861 3.99357 18.5904C2.92348 18.3221 1.96685 17.9211 1.25792 17.3878C0.5572 16.8607 2.23517e-07 16.12 0 15.2C-2.23517e-07 14.28 0.5572 13.5393 1.25792 13.0122C1.67366 12.6995 2.26087 12.7875 2.56948 13.2088C2.87809 13.63 2.79124 14.2251 2.3755 14.5378C1.92426 14.8772 1.875 15.1195 1.875 15.2C1.875 15.2805 1.92426 15.5228 2.3755 15.8622C2.81852 16.1954 3.51877 16.514 4.44393 16.746C5.35963 16.9756 6.41494 17.1 7.5 17.1C8.58506 17.1 9.64037 16.9756 10.5561 16.746C11.4812 16.514 12.1815 16.1954 12.6245 15.8622C13.0757 15.5228 13.125 15.2805 13.125 15.2C13.125 15.1195 13.0757 14.8772 12.6245 14.5378C12.2088 14.2251 12.1219 13.63 12.4305 13.2088Z" fill="white"/>
</svg>
