<svg width="current" height="current" viewBox="0 0 203 31" fill="none" xmlns="http://www.w3.org/2000/svg">
<path d="M20.1619 15.9813C19.4146 15.2511 18.4181 14.5873 17.2057 14.0064C16.01 13.4422 14.5153 12.9609 12.7548 12.5792C11.8912 12.3967 11.0774 12.2141 10.3135 12.0316C9.58274 11.8656 8.95164 11.6499 8.43679 11.3844C7.93856 11.1354 7.53997 10.8201 7.25764 10.455C6.99191 10.1231 6.85905 9.65846 6.85905 9.07762V8.59636C6.85905 8.28105 6.94209 7.96574 7.12477 7.61724C7.30746 7.26874 7.58979 6.95343 7.97177 6.63812C8.37036 6.3228 8.8686 6.07388 9.48309 5.87473C10.0976 5.67559 10.8615 5.57602 11.7085 5.57602C12.8213 5.57602 13.8842 5.69218 14.864 5.90792C15.8273 6.12366 16.8902 6.58833 18.0029 7.31852L18.4347 7.60064L21.3743 2.75482L20.9591 2.48929C19.4478 1.52677 17.9033 0.862955 16.3587 0.514454C14.8474 0.165953 13.2531 0 11.6089 0C9.59934 0 7.87213 0.28212 6.47707 0.829764C5.08201 1.37741 3.95267 2.09101 3.10567 2.93737C2.25867 3.78373 1.62757 4.74625 1.24559 5.75856C0.880217 6.77088 0.69753 7.75 0.69753 8.69593V9.22698C0.69753 11.0027 1.02969 12.4631 1.694 13.5418C2.35832 14.6204 3.22192 15.4834 4.26822 16.114C5.29791 16.7281 6.46046 17.1927 7.72266 17.508C8.95164 17.8067 10.164 18.0889 11.3764 18.3544C12.9873 18.7195 14.1997 19.1676 15.0135 19.7152C15.7443 20.1965 16.093 20.9267 16.093 21.939V22.387C16.093 23.2334 15.7443 23.9138 15.0301 24.4781C14.2994 25.0589 13.0372 25.3576 11.31 25.3576C9.58274 25.3576 8.10464 25.0921 6.77601 24.5444C5.43077 23.9968 4.33465 23.3662 3.48765 22.6526L3.03924 22.2709L0 27.2661L0.348765 27.5482C0.946648 28.0294 1.62757 28.4775 2.42475 28.909C3.20532 29.3405 4.06893 29.7056 4.98236 30.0043C5.87918 30.303 6.85905 30.5519 7.90534 30.7345C8.93503 30.917 9.99793 31 11.0774 31C12.5057 31 13.9008 30.8506 15.2128 30.5685C16.558 30.2698 17.7704 29.7719 18.8167 29.0915C19.8796 28.3945 20.7266 27.4486 21.3411 26.2869C21.9556 25.1253 22.2711 23.6815 22.2711 22.0054V21.4743C22.2711 20.4288 22.1051 19.4331 21.7729 18.5369C21.4407 17.6242 20.8761 16.7778 20.1121 16.031L20.1619 15.9813Z" fill="white"/>
<path d="M32.8338 17.7403H45.5886V12.5294H32.8338V5.72536H46.4356V0.448059H26.7055V30.5187H46.718V25.2248H32.8338V17.7403Z" fill="white"/>
<path d="M71.9619 3.05355C70.7827 2.00805 69.3876 1.22807 67.8431 0.730211C64.7707 -0.232316 61.2332 -0.232316 58.1441 0.730211C56.583 1.22807 55.2045 2.00805 54.0254 3.05355C52.8462 4.09905 51.8996 5.47646 51.2187 7.1194C50.5377 8.76233 50.189 10.7538 50.189 13.0771V17.8731C50.189 20.2131 50.5377 22.2377 51.2187 23.8806C51.8996 25.5402 52.8462 26.9176 54.0088 27.9465C55.1713 28.9754 56.5498 29.7554 58.1109 30.2366C59.6388 30.7013 61.283 30.9336 62.9936 30.9336C64.7042 30.9336 66.3484 30.7013 67.8763 30.2366C69.4375 29.7554 70.8159 28.992 71.9785 27.9465C73.141 26.901 74.0877 25.5402 74.7686 23.8806C75.4495 22.2211 75.7983 20.1965 75.7983 17.8731V13.0771C75.7983 10.7704 75.4495 8.76233 74.7686 7.1194C74.0877 5.47646 73.141 4.09905 71.9619 3.05355ZM69.5869 17.2259C69.5869 18.8191 69.4043 20.1633 69.0721 21.2254C68.7399 22.2543 68.2583 23.0675 67.677 23.6483C67.0958 24.2291 66.3982 24.644 65.6343 24.8764C64.0399 25.341 62.047 25.3576 60.3862 24.8764C59.6222 24.644 58.9247 24.2291 58.3434 23.6483C57.7621 23.0675 57.2805 22.2377 56.9318 21.2254C56.5664 20.1799 56.4003 18.8357 56.4003 17.2425V13.7409C56.4003 12.1312 56.583 10.787 56.9318 9.75805C57.2805 8.74574 57.7621 7.91597 58.3434 7.33514C58.9413 6.73771 59.6056 6.33942 60.3862 6.10708C61.2 5.85816 62.0802 5.74199 62.9936 5.74199C63.9071 5.74199 64.8205 5.85816 65.6343 6.10708C66.4148 6.33942 67.0958 6.73771 67.677 7.33514C68.2583 7.93257 68.7233 8.72914 69.0721 9.75805C69.4209 10.8036 69.5869 12.1478 69.5869 13.7575V17.2591V17.2259Z" fill="white"/>
<path d="M114.511 0.448059H108.35V30.5187H127.781V25.1584H114.511V0.448059Z" fill="white"/>
<path d="M130.853 30.5187H137.031V18.4539H149.736V13.0937H137.031V5.80834H150.583V0.448059H130.853V30.5187Z" fill="white"/>
<path d="M189.147 25.1584V0.448059H182.969V30.5187H202.417V25.1584H189.147Z" fill="white"/>
<path d="M157.459 6.60492C159.17 6.60492 160.548 5.22751 160.548 3.5182C160.548 1.80888 159.17 0.431473 157.459 0.431473C155.749 0.431473 154.37 1.80888 154.37 3.5182C154.37 5.22751 155.749 6.60492 157.459 6.60492Z" fill="white"/>
<path d="M174.881 12.6124C173.17 12.6124 171.792 13.9898 171.792 15.6991V18.122C171.792 19.4994 171.675 20.6611 171.443 21.607C171.227 22.5032 170.878 23.2334 170.43 23.781C169.981 24.3121 169.433 24.6938 168.752 24.9095C168.038 25.1418 167.158 25.2746 166.162 25.2746C165.165 25.2746 164.302 25.1584 163.571 24.9095C162.873 24.6772 162.325 24.3121 161.893 23.781C161.445 23.2334 161.113 22.5032 160.88 21.607C160.648 20.6611 160.532 19.4994 160.532 18.122V15.6991C160.532 13.9898 159.153 12.6124 157.443 12.6124C155.732 12.6124 154.353 13.9898 154.353 15.6991V18.0391C154.353 20.4786 154.619 22.5364 155.117 24.1627C155.632 25.8222 156.413 27.1665 157.426 28.1788C158.439 29.1911 159.701 29.9213 161.179 30.3362C162.624 30.751 164.285 30.9668 166.162 30.9668C168.038 30.9668 169.699 30.751 171.144 30.3362C172.622 29.9047 173.884 29.1911 174.897 28.1788C175.91 27.1665 176.674 25.8222 177.206 24.1627C177.721 22.5364 177.97 20.4786 177.97 18.0391V15.6991C177.97 13.9898 176.591 12.6124 174.881 12.6124Z" fill="white"/>
<path d="M174.881 6.60492C176.591 6.60492 177.97 5.22751 177.97 3.5182C177.97 1.80888 176.591 0.431473 174.881 0.431473C173.17 0.431473 171.792 1.80888 171.792 3.5182C171.792 5.22751 173.17 6.60492 174.881 6.60492Z" fill="white"/>
<path d="M82.8403 6.60492C84.5509 6.60492 85.9294 5.22751 85.9294 3.5182C85.9294 1.80888 84.5509 0.431473 82.8403 0.431473C81.1297 0.431473 79.7513 1.80888 79.7513 3.5182C79.7513 5.22751 81.1297 6.60492 82.8403 6.60492Z" fill="white"/>
<path d="M100.549 11.9551C98.8384 11.9551 97.4599 13.3325 97.4599 15.0418V17.4647C97.4599 18.8422 97.3437 20.0038 97.1112 20.9498C96.8953 21.8459 96.5465 22.5761 96.0981 23.1237C95.6497 23.6548 95.1016 24.0365 94.4207 24.2522C93.7065 24.4846 92.8263 24.6173 91.8299 24.6173C90.8334 24.6173 89.9698 24.5011 89.239 24.2522C88.5415 24.0199 87.9934 23.6548 87.5616 23.1237C87.1132 22.5761 86.7811 21.8459 86.5486 20.9498C86.316 20.0038 86.1998 18.8422 86.1998 17.4647V15.0418C86.1998 13.3325 84.8213 11.9551 83.1107 11.9551C81.4001 11.9551 80.0217 13.3325 80.0217 15.0418V17.3818C80.0217 19.8213 80.2874 21.8791 80.7856 23.5054C81.3005 25.165 82.081 26.5092 83.0941 27.5215C84.1072 28.5338 85.3694 29.264 86.8475 29.6789C88.2924 30.0938 89.9532 30.3095 91.8299 30.3095C93.7065 30.3095 95.3673 30.0938 96.8122 29.6789C98.2903 29.2474 99.5525 28.5338 100.566 27.5215C101.579 26.5092 102.343 25.165 102.874 23.5054C103.389 21.8791 103.638 19.8213 103.638 17.3818V15.0418C103.638 13.3325 102.26 11.9551 100.549 11.9551Z" fill="white"/>
<path d="M100.262 6.60492C101.972 6.60492 103.351 5.22751 103.351 3.5182C103.351 1.80888 101.972 0.431473 100.262 0.431473C98.5511 0.431473 97.1726 1.80888 97.1726 3.5182C97.1726 5.22751 98.5511 6.60492 100.262 6.60492Z" fill="white"/>
<path d="M59.2237 13.94C60.0675 13.94 60.7516 13.2565 60.7516 12.4133C60.7516 11.5701 60.0675 10.8865 59.2237 10.8865C58.3798 10.8865 57.6957 11.5701 57.6957 12.4133C57.6957 13.2565 58.3798 13.94 59.2237 13.94Z" fill="white"/>
<path d="M66.9629 13.94C67.8067 13.94 68.4908 13.2565 68.4908 12.4133C68.4908 11.5701 67.8067 10.8865 66.9629 10.8865C66.119 10.8865 65.4349 11.5701 65.4349 12.4133C65.4349 13.2565 66.119 13.94 66.9629 13.94Z" fill="white"/>
<path d="M64.4717 19.0846H61.9639C61.4989 19.0846 61.1335 18.7195 61.1335 18.2548V14.5873C61.1335 14.1226 61.4989 13.7575 61.9639 13.7575C62.4289 13.7575 62.7943 14.1226 62.7943 14.5873V17.4251H64.4717C64.9367 17.4251 65.3021 17.7901 65.3021 18.2548C65.3021 18.7195 64.9367 19.0846 64.4717 19.0846Z" fill="white"/>
</svg>
