<svg width="26" height="26" viewBox="0 0 26 26" fill="none" xmlns="http://www.w3.org/2000/svg">
<path d="M26 10.8333L22.75 13.2568V12.4583C22.75 11.0175 21.9418 9.76192 20.7556 9.12058C21.3319 8.203 21.6667 7.11967 21.6667 5.95833C21.6667 2.67258 18.9941 0 15.7083 0C14.0021 0 12.4627 0.720417 11.375 1.87308C10.2873 0.720417 8.74792 0 7.04167 0C3.75592 0 1.08333 2.67258 1.08333 5.95833C1.08333 7.11967 1.417 8.20408 1.99442 9.12058C0.808167 9.76192 0 11.0175 0 12.4583V26H22.75V21.4099L26 23.8333V10.8333ZM15.7083 3.25C17.2012 3.25 18.4167 4.4655 18.4167 5.95833C18.4167 7.45117 17.2012 8.66667 15.7083 8.66667C14.2155 8.66667 13 7.45117 13 5.95833C13 4.4655 14.2155 3.25 15.7083 3.25ZM7.04167 3.25C8.5345 3.25 9.75 4.4655 9.75 5.95833C9.75 7.45117 8.5345 8.66667 7.04167 8.66667C5.54883 8.66667 4.33333 7.45117 4.33333 5.95833C4.33333 4.4655 5.54883 3.25 7.04167 3.25ZM19.5 22.75H3.25V12.4583C3.25 12.1593 3.49267 11.9167 3.79167 11.9167H18.9583C19.2573 11.9167 19.5 12.1593 19.5 12.4583V22.75Z" fill="white"/>
</svg>
