<svg width="30" height="31" viewBox="0 0 30 31" fill="none" xmlns="http://www.w3.org/2000/svg">
<path d="M29.5714 19.3214V27.4464C29.5714 29.1727 28.2126 30.5714 26.5357 30.5714C24.8588 30.5714 23.5 29.1727 23.5 27.4464C23.5 25.7202 24.8588 24.3214 26.5357 24.3214C26.7433 24.3214 26.9461 24.3439 27.1428 24.3839V19.3214C27.1428 18.6327 26.5988 18.0714 25.9286 18.0714H22.2857C21.6154 18.0714 21.0714 18.6327 21.0714 19.3214V27.4464C21.0714 29.1727 19.7126 30.5714 18.0357 30.5714C16.3588 30.5714 15 29.1727 15 27.4464C15 25.7202 16.3588 24.3214 18.0357 24.3214C18.2433 24.3214 18.4461 24.3439 18.6428 24.3839V19.3214C18.6428 17.2539 20.2773 15.5714 22.2857 15.5714H25.9286C27.937 15.5714 29.5714 17.2539 29.5714 19.3214ZM11.2308 15.3752C10.5484 14.3652 10.1428 13.1427 10.1428 11.8214V6.82143C10.1428 3.37518 12.8665 0.571426 16.2143 0.571426H23.5C25.5752 0.571426 27.4063 1.65143 28.5016 3.29018L22.4763 9.53268L21.8996 8.93393C21.0058 8.01143 19.5997 7.94393 18.6076 8.79518L11.2308 15.3752ZM12.5556 5.09018C12.5556 6.12518 13.3716 6.96518 14.3771 6.96518C15.3825 6.96518 16.1985 6.12518 16.1985 5.09018C16.1985 4.05518 15.3825 3.21518 14.3771 3.21518C13.3716 3.21518 12.5556 4.05518 12.5556 5.09018ZM12.5714 27.4464C12.5714 28.6027 12.9126 29.6777 13.4943 30.5714H5.89284C2.87534 30.5714 0.428558 28.0527 0.428558 24.9464V18.6964C0.428558 15.5902 2.87534 13.0714 5.89284 13.0714H6.82299C7.36699 13.0714 7.8527 13.4414 7.98627 13.9839C8.92006 17.7639 12.2375 20.5639 16.1997 20.5714L16.2143 20.5739V22.1877C14.0978 22.9577 12.5714 25.0027 12.5714 27.4464ZM5.2857 25.5714H2.92392C3.16677 26.7927 4.09934 27.7589 5.2857 28.0089V25.5714ZM5.2857 20.5714H2.85713V23.0714H5.2857V20.5714ZM5.2857 15.6339C4.09813 15.8827 3.16677 16.8489 2.92392 18.0714H5.2857V15.6339ZM29.4731 5.82518L24.1897 11.2927C23.2413 12.2689 21.6992 12.2689 20.7533 11.2952L20.1753 10.6952L13.0001 17.1027C13.9351 17.7077 15.0303 18.0714 16.2131 18.0714H16.3357C16.9003 15.2227 19.352 13.0714 22.2845 13.0714H25.9273C27.1161 13.0714 28.2163 13.4377 29.1537 14.0477C29.4123 13.3539 29.5702 12.6077 29.5702 11.8214V6.82143C29.5702 6.48018 29.5241 6.15143 29.4718 5.82518H29.4731Z" fill="white"/>
</svg>
