<svg width="31" height="31" viewBox="0 0 31 31" fill="none" xmlns="http://www.w3.org/2000/svg">
<path d="M30.1626 3.0368C29.9951 2.95411 26.0155 0.994119 21.0856 0.292552C16.1531 -0.407723 11.7828 0.364905 11.5984 0.397206L10.6778 0.563877L8.88738 13.0345C8.09018 18.5811 16.1635 23.8254 17.0866 24.4042L17.5787 24.713L18.137 24.5541C19.1861 24.2557 28.4123 21.4701 29.2082 15.9247L31 3.45283L30.1626 3.0368ZM17.3047 6.26685C18.3915 6.42319 19.1134 7.65965 19.1861 9.14418L14.6872 8.50463C15.1754 7.10021 16.2167 6.10923 17.3047 6.26685ZM18.7278 16.9105C16.2388 16.5604 14.5041 14.3523 14.2198 11.7696C17.8098 14.1689 20.3806 14.5345 24.5029 13.2321C23.5032 15.6314 21.2141 17.2607 18.7291 16.9105H18.7278ZM20.4728 9.32765C20.961 7.92322 22.001 6.93225 23.089 7.08987C24.1757 7.24621 24.8976 8.48267 24.9703 9.9672L20.4715 9.32765H20.4728ZM17.6631 27.7919C15.7986 29.4677 14.0549 30.6008 13.9303 30.6809L13.4343 31L12.8669 30.8385C11.8165 30.54 2.58766 27.7544 1.79176 22.2065L0 9.73205L0.837452 9.31602C0.971185 9.24884 3.55625 7.97749 7.1151 7.11313L6.31789 12.6688C6.24648 13.1624 6.22441 13.6495 6.24259 14.1301C5.61417 14.6275 5.22077 15.5746 5.16623 16.6521L6.65287 16.4402C7.00473 17.5643 7.55654 18.6328 8.22131 19.6263C7.09302 20.669 6.41917 22.2298 6.36074 23.9042C7.62276 22.9171 8.76533 22.2207 9.91959 21.784C12.1865 24.2854 14.821 26.0386 15.7012 26.5916L17.6618 27.7932L17.6631 27.7919Z" fill="white"/>
</svg>
