<svg width="current" height="current" viewBox="0 0 15 13" fill="none" xmlns="http://www.w3.org/2000/svg">
<path d="M9.21531 3.57513C9.21531 5.54962 7.59663 7.15026 5.59988 7.15026C3.60313 7.15026 1.98445 5.54962 1.98445 3.57513C1.98445 1.60064 3.60313 0 5.59988 0C7.59663 0 9.21531 1.60064 9.21531 3.57513Z" fill="#CCCCCC"/>
<path fill-rule="evenodd" clip-rule="evenodd" d="M12.1077 4.29016C12.507 4.29016 12.8307 4.61028 12.8307 5.00518V9.29534C12.8307 9.69023 12.507 10.0104 12.1077 10.0104C11.7083 10.0104 11.3846 9.69023 11.3846 9.29534L11.3846 5.00518C11.3846 4.61028 11.7083 4.29016 12.1077 4.29016Z" fill="#CCCCCC"/>
<path fill-rule="evenodd" clip-rule="evenodd" d="M15 7.15026C15 7.54516 14.6763 7.86528 14.2769 7.86528L9.9384 7.86528C9.53905 7.86528 9.21531 7.54516 9.21531 7.15026C9.21531 6.75536 9.53905 6.43523 9.9384 6.43523L14.2769 6.43523C14.6763 6.43523 15 6.75536 15 7.15026Z" fill="#CCCCCC"/>
<path d="M10.7643 12.429C11.0981 12.3542 11.2983 12.0111 11.1503 11.7059C10.7513 10.8829 10.0956 10.1597 9.2456 9.61462C8.1997 8.94387 6.91821 8.58031 5.59988 8.58031C4.28155 8.58031 3.00006 8.94387 1.95416 9.61461C1.10421 10.1597 0.448447 10.8829 0.049446 11.7059C-0.0985059 12.0111 0.101705 12.3542 0.4355 12.429C3.83538 13.1903 7.36439 13.1903 10.7643 12.429Z" fill="#CCCCCC"/>
</svg>
