<svg width="15" height="15" viewBox="0 0 15 15" fill="none" xmlns="http://www.w3.org/2000/svg">
<path fill-rule="evenodd" clip-rule="evenodd" d="M6.66667 1.66667C3.90524 1.66667 1.66667 3.90524 1.66667 6.66667C1.66667 9.42809 3.90524 11.6667 6.66667 11.6667C9.42809 11.6667 11.6667 9.42809 11.6667 6.66667C11.6667 3.90524 9.42809 1.66667 6.66667 1.66667ZM0 6.66667C0 2.98477 2.98477 0 6.66667 0C10.3486 0 13.3333 2.98477 13.3333 6.66667C13.3333 8.25304 12.7792 9.70999 11.8541 10.8546C12.0013 10.8884 12.1412 10.9627 12.2559 11.0774L14.7559 13.5774C15.0814 13.9028 15.0814 14.4305 14.7559 14.7559C14.4305 15.0814 13.9028 15.0814 13.5774 14.7559L11.0774 12.2559C10.9627 12.1412 10.8884 12.0013 10.8546 11.8541C9.70999 12.7792 8.25304 13.3333 6.66667 13.3333C2.98477 13.3333 0 10.3486 0 6.66667Z" fill="#999999"/>
</svg>
