<svg width="21" height="26" viewBox="0 0 21 26" fill="none" xmlns="http://www.w3.org/2000/svg">
<path d="M5.25 5.2C5.25 2.32812 7.60051 0 10.5 0C13.3995 0 15.75 2.32812 15.75 5.2V11.7C15.75 14.5719 13.3995 16.9 10.5 16.9C7.60051 16.9 5.25 14.5719 5.25 11.7V5.2Z" fill="white"/>
<path fill-rule="evenodd" clip-rule="evenodd" d="M19.6875 10.4C20.4124 10.4 21 10.982 21 11.7C21 14.4583 19.8938 17.1035 17.9246 19.0539C15.9555 21.0043 13.2848 22.1 10.5 22.1C7.71523 22.1 5.04451 21.0043 3.07538 19.0539C1.10625 17.1035 4.69387e-07 14.4583 0 11.7C0 10.982 0.587626 10.4 1.3125 10.4C2.03737 10.4 2.625 10.982 2.625 11.7C2.625 13.7687 3.45469 15.7526 4.93153 17.2154C6.40838 18.6782 8.41142 19.5 10.5 19.5C12.5886 19.5 14.5916 18.6782 16.0685 17.2154C17.5453 15.7526 18.375 13.7687 18.375 11.7C18.375 10.982 18.9626 10.4 19.6875 10.4Z" fill="white"/>
<path fill-rule="evenodd" clip-rule="evenodd" d="M10.5 20.8C11.2249 20.8 11.8125 21.382 11.8125 22.1V24.7C11.8125 25.418 11.2249 26 10.5 26C9.77513 26 9.1875 25.418 9.1875 24.7V22.1C9.1875 21.382 9.77513 20.8 10.5 20.8Z" fill="white"/>
</svg>
