<svg width="8" height="8" viewBox="0 0 8 8" fill="none" xmlns="http://www.w3.org/2000/svg">
<path fill-rule="evenodd" clip-rule="evenodd" d="M5.83758 0L8 1.93965L7.35032 2.52241L6.29697 1.57758L6.29697 6.76379C6.29697 7.44653 5.67994 8 4.91879 8C4.66507 8 4.45939 7.81551 4.45939 7.58793C4.45939 7.36035 4.66507 7.17586 4.91879 7.17586C5.17251 7.17586 5.37818 6.99137 5.37818 6.76379L5.37818 1.57758L4.32484 2.52241L3.67516 1.93965L5.83758 0ZM3.08121 0.994823C2.82749 0.994823 2.62181 1.17931 2.62181 1.40689L2.62181 6.18104L3.67516 5.23621L4.32484 5.81896L2.16242 7.75862L0 5.81896L0.649682 5.23621L1.70303 6.18104L1.70303 1.40689C1.70303 0.724154 2.32006 0.170685 3.08121 0.170685C3.33493 0.170685 3.5406 0.355174 3.5406 0.582754C3.5406 0.810333 3.33493 0.994823 3.08121 0.994823Z" fill="#BBBBBB"/>
</svg>
