<svg width="20" height="20" viewBox="0 0 20 20" fill="none" xmlns="http://www.w3.org/2000/svg">
<path d="M12 10C12 11.1046 11.1046 12 10 12C8.89543 12 8 11.1046 8 10C8 8.89543 8.89543 8 10 8C11.1046 8 12 8.89543 12 10Z" fill="#777777"/>
<path fill-rule="evenodd" clip-rule="evenodd" d="M10 0C10.5523 0 11 0.447715 11 1V2.06189C14.6187 2.51314 17.4869 5.38128 17.9381 9H19C19.5523 9 20 9.44771 20 10C20 10.5523 19.5523 11 19 11H17.9381C17.4869 14.6187 14.6187 17.4869 11 17.9381V19C11 19.5523 10.5523 20 10 20C9.44771 20 9 19.5523 9 19V17.9381C5.38128 17.4869 2.51314 14.6187 2.06189 11H1C0.447715 11 0 10.5523 0 10C0 9.44771 0.447715 9 1 9H2.06189C2.51314 5.38128 5.38128 2.51314 9 2.06189V1C9 0.447715 9.44771 0 10 0ZM10 4C6.68629 4 4 6.68629 4 10C4 13.3137 6.68629 16 10 16C13.3137 16 16 13.3137 16 10C16 6.68629 13.3137 4 10 4ZM10 9C9.44771 9 9 9.44771 9 10C9 10.5523 9.44771 11 10 11C10.5523 11 11 10.5523 11 10C11 9.44771 10.5523 9 10 9ZM7 10C7 8.34315 8.34315 7 10 7C11.6569 7 13 8.34315 13 10C13 11.6569 11.6569 13 10 13C8.34315 13 7 11.6569 7 10Z" fill="#777777"/>
</svg>
