<svg width="15" height="11" viewBox="0 0 15 11" fill="none" xmlns="http://www.w3.org/2000/svg">
<path d="M9.16667 0H3.75C2.58515 0 2.00272 0 1.54329 0.156998C0.930721 0.36633 0.444036 0.767845 0.190301 1.27322C0 1.65224 0 2.13275 0 3.09375V3.60938C0 3.89415 0.279822 4.125 0.625 4.125H0.833333C1.75381 4.125 2.5 4.74061 2.5 5.5C2.5 6.25939 1.75381 6.875 0.833333 6.875H0.625C0.279822 6.875 0 7.10585 0 7.39062V7.90625C0 8.86725 0 9.34776 0.190301 9.72678C0.444036 10.2322 0.930721 10.6337 1.54329 10.843C2.00272 11 2.58515 11 3.75 11H9.16667V10.3125C9.16667 9.9328 9.53976 9.625 10 9.625V8.25C9.53976 8.25 9.16667 7.9422 9.16667 7.5625V6.875C9.16667 6.4953 9.53976 6.1875 10 6.1875V4.8125C9.53976 4.8125 9.16667 4.5047 9.16667 4.125V3.4375C9.16667 3.0578 9.53976 2.75 10 2.75V1.375C9.53976 1.375 9.16667 1.0672 9.16667 0.6875V0Z" fill="#CCCCCC"/>
<path d="M10 1.375V2.75C10.4602 2.75 10.8333 3.0578 10.8333 3.4375V4.125C10.8333 4.5047 10.4602 4.8125 10 4.8125V6.1875C10.4602 6.1875 10.8333 6.4953 10.8333 6.875V7.5625C10.8333 7.9422 10.4602 8.25 10 8.25V9.625C10.4602 9.625 10.8333 9.9328 10.8333 10.3125V11H11.25C12.4149 11 12.9973 11 13.4567 10.843C14.0693 10.6337 14.556 10.2322 14.8097 9.72678C15 9.34776 15 8.86725 15 7.90625V7.39062C15 7.10585 14.7202 6.875 14.375 6.875H14.1667C13.2462 6.875 12.5 6.25939 12.5 5.5C12.5 4.74061 13.2462 4.125 14.1667 4.125H14.375C14.7202 4.125 15 3.89415 15 3.60938V3.09375C15 2.13275 15 1.65224 14.8097 1.27322C14.556 0.767845 14.0693 0.36633 13.4567 0.156998C12.9973 0 12.4149 0 11.25 0H10.8333V0.6875C10.8333 1.0672 10.4602 1.375 10 1.375Z" fill="#CCCCCC"/>
</svg>
