<svg width="18" height="18" viewBox="0 0 18 18" fill="none" xmlns="http://www.w3.org/2000/svg">
<path d="M16.6515 16.4054C17.2043 16.2902 17.5336 15.7117 17.2589 15.2183C16.6533 14.1307 15.6993 13.1749 14.4788 12.4465C12.907 11.5085 10.9812 11 8.99997 11C7.01877 11 5.09292 11.5085 3.52112 12.4465C2.30069 13.1749 1.34666 14.1307 0.741081 15.2183C0.466383 15.7117 0.795618 16.2902 1.34843 16.4054C6.39524 17.4572 11.6047 17.4572 16.6515 16.4054Z" fill="white"/>
<path d="M14 5C14 7.76142 11.7614 10 9 10C6.23857 10 4 7.76142 4 5C4 2.23858 6.23857 0 9 0C11.7614 0 14 2.23858 14 5Z" fill="white"/>
</svg>
