<svg width="18" height="16" viewBox="0 0 18 16" fill="none" xmlns="http://www.w3.org/2000/svg">
<path d="M7.30247 0.973459C8.05693 -0.324485 9.94307 -0.324487 10.6975 0.973457L17.7345 13.0796C18.4889 14.3776 17.5459 16 16.0369 16H1.96306C0.454149 16 -0.488923 14.3776 0.265532 13.0796L7.30247 0.973459Z" fill="#BF5E70"/>
<path d="M9.95816 3.69298L9.79086 10.9745H8.15838L7.99615 3.69298H9.95816ZM8.97462 14.1167C8.66705 14.1167 8.40342 14.0093 8.18373 13.7944C7.96742 13.5796 7.85927 13.3177 7.85927 13.0089C7.85927 12.7067 7.96742 12.4482 8.18373 12.2334C8.40342 12.0185 8.66705 11.9111 8.97462 11.9111C9.27543 11.9111 9.53568 12.0185 9.75537 12.2334C9.97844 12.4482 10.09 12.7067 10.09 13.0089C10.09 13.2136 10.0376 13.4 9.93281 13.5678C9.83142 13.7357 9.69622 13.8699 9.52723 13.9707C9.36162 14.068 9.17741 14.1167 8.97462 14.1167Z" fill="white"/>
</svg>
